<svg xmlns="http://www.w3.org/2000/svg" width="420" height="420" viewBox="0 0 420 420">
  <defs>
    <style>
      .icon { fill: none; stroke: #1f2c33; stroke-width: 1.2; stroke-linecap: round; stroke-linejoin: round; }
    </style>
  </defs>
  
  <!-- Camera -->
  <g transform="translate(20, 20)">
    <rect class="icon" x="2" y="6" width="20" height="14" rx="2"/>
    <path class="icon" d="M7 6V4a2 2 0 012-2h6a2 2 0 012 2v2"/>
    <circle class="icon" cx="12" cy="13" r="4"/>
  </g>
  
  <!-- Heart -->
  <g transform="translate(80, 35)">
    <path class="icon" d="M12 21.35l-1.45-1.32C5.4 15.36 2 12.28 2 8.5 2 5.42 4.42 3 7.5 3c1.74 0 3.41.81 4.5 2.09C13.09 3.81 14.76 3 16.5 3 19.58 3 22 5.42 22 8.5c0 3.78-3.4 6.86-8.55 11.54L12 21.35z"/>
  </g>
  
  <!-- Bicycle -->
  <g transform="translate(140, 15)">
    <circle class="icon" cx="5" cy="18" r="4"/>
    <circle class="icon" cx="19" cy="18" r="4"/>
    <path class="icon" d="M12 18V8l4 4-4-4-5 10"/>
    <path class="icon" d="M9 8h6"/>
  </g>
  
  <!-- Music Note -->
  <g transform="translate(210, 25)">
    <path class="icon" d="M9 18V5l12-2v13"/>
    <circle class="icon" cx="6" cy="18" r="3"/>
    <circle class="icon" cx="18" cy="16" r="3"/>
  </g>
  
  <!-- Coffee Cup -->
  <g transform="translate(280, 20)">
    <path class="icon" d="M18 8h1a4 4 0 010 8h-1"/>
    <path class="icon" d="M2 8h16v9a4 4 0 01-4 4H6a4 4 0 01-4-4V8z"/>
    <path class="icon" d="M6 1v3M10 1v3M14 1v3"/>
  </g>
  
  <!-- Star -->
  <g transform="translate(350, 30)">
    <path class="icon" d="M12 2l3.09 6.26L22 9.27l-5 4.87 1.18 6.88L12 17.77l-6.18 3.25L7 14.14 2 9.27l6.91-1.01L12 2z"/>
  </g>
  
  <!-- Rocket -->
  <g transform="translate(30, 90)">
    <path class="icon" d="M4.5 16.5c-1.5 1.26-2 5-2 5s3.74-.5 5-2c.71-.84.7-2.13-.09-2.91a2.18 2.18 0 00-2.91-.09z"/>
    <path class="icon" d="M12 15l-3-3a22 22 0 012-3.95A12.88 12.88 0 0122 2c0 2.72-.78 7.5-6 11a22.35 22.35 0 01-4 2z"/>
    <path class="icon" d="M9 12H4s.55-3.03 2-4c1.62-1.08 5 0 5 0M12 15v5s3.03-.55 4-2c1.08-1.62 0-5 0-5"/>
  </g>
  
  <!-- Dog/Pet -->
  <g transform="translate(100, 85)">
    <path class="icon" d="M10 5.172C10 3.782 8.423 2.679 6.5 3c-2.823.47-4.113 6.006-4 7 .08.703 1.725 1.722 3.656 1 1.261-.472 1.96-1.45 2.344-2.5"/>
    <path class="icon" d="M14.267 5.172c0-1.39 1.577-2.493 3.5-2.172 2.823.47 4.113 6.006 4 7-.08.703-1.725 1.722-3.656 1-1.261-.472-1.855-1.45-2.239-2.5"/>
    <path class="icon" d="M8 14v.5M16 14v.5"/>
    <path class="icon" d="M11.25 16.25h1.5L12 17l-.75-.75z"/>
    <path class="icon" d="M4.42 11.247A13.152 13.152 0 004 14.556C4 18.728 7.582 21 12 21s8-2.272 8-6.444c0-1.061-.162-2.2-.493-3.309m-9.243-6.082A8.801 8.801 0 0112 5c.78 0 1.5.108 2.161.306"/>
  </g>
  
  <!-- Backpack -->
  <g transform="translate(170, 80)">
    <path class="icon" d="M4 20V10a4 4 0 014-4h8a4 4 0 014 4v10a2 2 0 01-2 2H6a2 2 0 01-2-2z"/>
    <path class="icon" d="M9 6V4a3 3 0 016 0v2"/>
    <path class="icon" d="M8 21v-5a2 2 0 012-2h4a2 2 0 012 2v5"/>
  </g>
  
  <!-- Pizza/Food -->
  <g transform="translate(240, 75)">
    <path class="icon" d="M12 2L2 22h20L12 2z"/>
    <circle class="icon" cx="10" cy="14" r="1"/>
    <circle class="icon" cx="14" cy="12" r="1"/>
    <circle class="icon" cx="12" cy="17" r="1"/>
  </g>
  
  <!-- Game Controller -->
  <g transform="translate(310, 85)">
    <path class="icon" d="M6 12h4M8 10v4"/>
    <path class="icon" d="M15 13h.01M18 11h.01"/>
    <rect class="icon" x="2" y="6" width="20" height="12" rx="2"/>
  </g>
  
  <!-- Plane -->
  <g transform="translate(25, 160)">
    <path class="icon" d="M17.8 19.2L16 11l3.5-3.5C21 6 21.5 4 21 3c-1-.5-3 0-4.5 1.5L13 8 4.8 6.2c-.5-.1-.9.1-1.1.5l-.3.5c-.2.5-.1 1 .3 1.3L9 12l-2 3H4l-1 1 3 2 2 3 1-1v-3l3-2 3.5 5.3c.3.4.8.5 1.3.3l.5-.2c.4-.3.6-.7.5-1.2z"/>
  </g>
  
  <!-- Headphones -->
  <g transform="translate(95, 155)">
    <path class="icon" d="M3 18v-6a9 9 0 0118 0v6"/>
    <path class="icon" d="M21 19a2 2 0 01-2 2h-1a2 2 0 01-2-2v-3a2 2 0 012-2h3zM3 19a2 2 0 002 2h1a2 2 0 002-2v-3a2 2 0 00-2-2H3z"/>
  </g>
  
  <!-- Book -->
  <g transform="translate(165, 150)">
    <path class="icon" d="M4 19.5A2.5 2.5 0 016.5 17H20"/>
    <path class="icon" d="M6.5 2H20v20H6.5A2.5 2.5 0 014 19.5v-15A2.5 2.5 0 016.5 2z"/>
  </g>
  
  <!-- Globe -->
  <g transform="translate(235, 145)">
    <circle class="icon" cx="12" cy="12" r="10"/>
    <path class="icon" d="M2 12h20M12 2a15.3 15.3 0 014 10 15.3 15.3 0 01-4 10 15.3 15.3 0 01-4-10 15.3 15.3 0 014-10z"/>
  </g>
  
  <!-- Lightbulb -->
  <g transform="translate(305, 150)">
    <path class="icon" d="M9 18h6M10 22h4"/>
    <path class="icon" d="M15.09 14c.18-.98.65-1.74 1.41-2.5A4.65 4.65 0 0018 8 6 6 0 006 8c0 1 .23 2.23 1.5 3.5A4.61 4.61 0 018.91 14"/>
  </g>
  
  <!-- Gift -->
  <g transform="translate(375, 145)">
    <rect class="icon" x="3" y="8" width="18" height="4" rx="1"/>
    <path class="icon" d="M12 8v13"/>
    <path class="icon" d="M19 12v7a2 2 0 01-2 2H7a2 2 0 01-2-2v-7"/>
    <path class="icon" d="M7.5 8a2.5 2.5 0 010-5A4.8 8 0 0112 8a4.8 8 0 014.5-5 2.5 2.5 0 010 5"/>
  </g>
  
  <!-- Cloud -->
  <g transform="translate(20, 225)">
    <path class="icon" d="M18 10h-1.26A8 8 0 109 20h9a5 5 0 000-10z"/>
  </g>
  
  <!-- Sun -->
  <g transform="translate(90, 220)">
    <circle class="icon" cx="12" cy="12" r="5"/>
    <path class="icon" d="M12 1v2M12 21v2M4.22 4.22l1.42 1.42M18.36 18.36l1.42 1.42M1 12h2M21 12h2M4.22 19.78l1.42-1.42M18.36 5.64l1.42-1.42"/>
  </g>
  
  <!-- Umbrella -->
  <g transform="translate(160, 215)">
    <path class="icon" d="M23 12a11.05 11.05 0 00-22 0zm-5 7a3 3 0 01-6 0v-7"/>
  </g>
  
  <!-- Phone -->
  <g transform="translate(230, 220)">
    <rect class="icon" x="5" y="2" width="14" height="20" rx="2" ry="2"/>
    <path class="icon" d="M12 18h.01"/>
  </g>
  
  <!-- Laptop -->
  <g transform="translate(300, 215)">
    <rect class="icon" x="2" y="3" width="20" height="14" rx="2" ry="2"/>
    <path class="icon" d="M2 17h20"/>
  </g>
  
  <!-- Flower -->
  <g transform="translate(370, 220)">
    <path class="icon" d="M12 7.5a4.5 4.5 0 114.5 4.5M12 7.5A4.5 4.5 0 107.5 12M12 7.5V9m-4.5 3a4.5 4.5 0 104.5 4.5M7.5 12H9m7.5 0a4.5 4.5 0 11-4.5 4.5m4.5-4.5H15m-3 4.5V15"/>
    <circle class="icon" cx="12" cy="12" r="3"/>
    <path class="icon" d="M12 16v6"/>
  </g>
  
  <!-- Octopus -->
  <g transform="translate(25, 290)">
    <ellipse class="icon" cx="12" cy="9" rx="8" ry="6"/>
    <path class="icon" d="M4 15c0 3 1 5 2 6s2-1 2-3M8 15c0 4 1 6 2 7s2-2 2-5M12 15c0 4 1 6 2 7s2-2 2-5M16 15c0 3 1 5 2 6s2-1 2-3"/>
    <circle class="icon" cx="9" cy="8" r="1"/>
    <circle class="icon" cx="15" cy="8" r="1"/>
  </g>
  
  <!-- Scooter -->
  <g transform="translate(95, 285)">
    <circle class="icon" cx="5" cy="18" r="3"/>
    <circle class="icon" cx="19" cy="18" r="3"/>
    <path class="icon" d="M8 18h8M5 15l2-8h4l3 8M16 18l2-13h3"/>
  </g>
  
  <!-- Ice Cream -->
  <g transform="translate(165, 280)">
    <path class="icon" d="M12 22l-4-10h8l-4 10z"/>
    <path class="icon" d="M5.5 12a6.5 6.5 0 1113 0"/>
    <path class="icon" d="M8 9a4 4 0 018 0"/>
  </g>
  
  <!-- Cat -->
  <g transform="translate(235, 285)">
    <path class="icon" d="M12 22c4.97 0 9-2.24 9-5v-2c0-2.33-2.69-4.29-6.5-4.87V7l1.5-4-3 2-3-2 1.5 4v3.13C7.69 10.71 5 12.67 5 15v2c0 2.76 4.03 5 9 5z"/>
    <path class="icon" d="M9 13l.01.01M15 13l.01.01"/>
    <path class="icon" d="M12 17c-.5 0-1-.5-1-1h2c0 .5-.5 1-1 1z"/>
  </g>
  
  <!-- Burger -->
  <g transform="translate(305, 280)">
    <path class="icon" d="M3 11h18a2 2 0 012 2v1H1v-1a2 2 0 012-2z"/>
    <path class="icon" d="M3 17h18v1a2 2 0 01-2 2H5a2 2 0 01-2-2v-1z"/>
    <path class="icon" d="M3 14h18v3H3z"/>
    <path class="icon" d="M21 11C21 6.03 16.97 2 12 2S3 6.03 3 11"/>
  </g>
  
  <!-- Trophy -->
  <g transform="translate(375, 285)">
    <path class="icon" d="M6 9H4.5a2.5 2.5 0 010-5H6M18 9h1.5a2.5 2.5 0 000-5H18"/>
    <path class="icon" d="M4 22h16"/>
    <path class="icon" d="M10 14.66V17c0 .55-.47.98-.97 1.21C7.85 18.75 7 20.24 7 22"/>
    <path class="icon" d="M14 14.66V17c0 .55.47.98.97 1.21C16.15 18.75 17 20.24 17 22"/>
    <path class="icon" d="M18 2H6v7a6 6 0 1012 0V2z"/>
  </g>
  
  <!-- Balloon -->
  <g transform="translate(30, 355)">
    <path class="icon" d="M12 22v-6"/>
    <path class="icon" d="M12 16a6 6 0 006-6c0-4-3-8-6-8s-6 4-6 8a6 6 0 006 6z"/>
    <path class="icon" d="M10 16l2 2 2-2"/>
  </g>
  
  <!-- Dice -->
  <g transform="translate(100, 350)">
    <rect class="icon" x="3" y="3" width="18" height="18" rx="2"/>
    <circle class="icon" cx="8.5" cy="8.5" r="1"/>
    <circle class="icon" cx="15.5" cy="8.5" r="1"/>
    <circle class="icon" cx="15.5" cy="15.5" r="1"/>
    <circle class="icon" cx="8.5" cy="15.5" r="1"/>
    <circle class="icon" cx="12" cy="12" r="1"/>
  </g>
  
  <!-- Cake -->
  <g transform="translate(170, 345)">
    <path class="icon" d="M20 21H4a2 2 0 01-2-2v-4a2 2 0 012-2h16a2 2 0 012 2v4a2 2 0 01-2 2z"/>
    <path class="icon" d="M4 13V9a2 2 0 012-2h12a2 2 0 012 2v4"/>
    <path class="icon" d="M12 7V4M8 7V5M16 7V5"/>
    <path class="icon" d="M12 4a1 1 0 100-2 1 1 0 000 2z"/>
  </g>
  
  <!-- Key -->
  <g transform="translate(240, 350)">
    <path class="icon" d="M21 2l-2 2m-7.61 7.61a5.5 5.5 0 11-7.778 7.778 5.5 5.5 0 017.777-7.777zm0 0L15.5 7.5m0 0l3 3L22 7l-3-3m-3.5 3.5L19 4"/>
  </g>
  
  <!-- Compass -->
  <g transform="translate(310, 345)">
    <circle class="icon" cx="12" cy="12" r="10"/>
    <polygon class="icon" points="16.24 7.76 14.12 14.12 7.76 16.24 9.88 9.88 16.24 7.76"/>
  </g>
  
  <!-- Anchor -->
  <g transform="translate(380, 350)">
    <circle class="icon" cx="12" cy="5" r="3"/>
    <path class="icon" d="M12 22V8M5 12H2a10 10 0 0020 0h-3"/>
  </g>
</svg>